<svg width="482" height="513" viewBox="0 0 482 513" fill="none" xmlns="http://www.w3.org/2000/svg">
<path d="M133.596 201.281H96.0747C95.0303 201.281 93.9961 201.074 93.0311 200.675C92.0667 200.275 91.1899 199.688 90.4523 198.95C89.714 198.21 89.1287 197.333 88.7301 196.368C88.3315 195.403 88.1268 194.368 88.1284 193.324V103.113C88.1284 102.07 88.3341 101.036 88.7332 100.072C89.1328 99.109 89.7182 98.2334 90.4558 97.4957C91.1941 96.758 92.0697 96.1731 93.0342 95.7745C93.9981 95.3759 95.0313 95.1707 96.0747 95.1718H158.019C159.064 95.1682 160.1 95.3713 161.067 95.7684C162.034 96.166 162.912 96.7503 163.653 97.488C164.394 98.2257 164.981 99.1024 165.383 100.067C165.784 101.033 165.99 102.068 165.992 103.113V127.445" stroke="#CCDDE2" stroke-width="4.5" stroke-miterlimit="10"/>
<path d="M156.138 106.104H98.769C96.5734 106.104 94.7933 107.884 94.7933 110.08V120.791C94.7933 122.987 96.5734 124.767 98.769 124.767H156.138C158.333 124.767 160.114 122.987 160.114 120.791V110.08C160.114 107.884 158.333 106.104 156.138 106.104Z" stroke="#CCDDE2" stroke-width="4.5" stroke-miterlimit="10"/>
<path d="M127.049 113.963C128.115 113.963 128.978 113.099 128.978 112.034C128.978 110.969 128.115 110.105 127.049 110.105C125.984 110.105 125.12 110.969 125.12 112.034C125.12 113.099 125.984 113.963 127.049 113.963Z" fill="#D7E8F0"/>
<path d="M121.658 120.77C121.612 120.035 121.718 119.299 121.968 118.606C122.218 117.913 122.608 117.278 123.112 116.741C123.617 116.205 124.226 115.777 124.902 115.484C125.579 115.192 126.307 115.041 127.045 115.041C127.781 115.041 128.51 115.192 129.186 115.484C129.862 115.777 130.471 116.205 130.976 116.741C131.481 117.278 131.87 117.913 132.121 118.606C132.371 119.299 132.476 120.035 132.431 120.77H121.658Z" fill="#D7E8F0"/>
<path d="M127.445 144.769C125.389 144.769 123.378 145.379 121.668 146.521C119.958 147.664 118.625 149.288 117.838 151.188C117.051 153.088 116.845 155.179 117.246 157.196C117.647 159.213 118.638 161.066 120.092 162.52C121.547 163.974 123.399 164.965 125.416 165.366C127.433 165.767 129.524 165.561 131.425 164.774C133.325 163.987 134.948 162.654 136.091 160.945C137.234 159.234 137.844 157.224 137.844 155.167C137.844 153.802 137.576 152.449 137.054 151.187C136.531 149.925 135.765 148.779 134.8 147.813C133.834 146.847 132.687 146.081 131.425 145.559C130.164 145.036 128.811 144.768 127.445 144.769ZM127.445 163.052C127.085 162.992 126.758 162.807 126.522 162.529C126.286 162.251 126.157 161.898 126.157 161.533C126.157 161.169 126.286 160.816 126.522 160.538C126.758 160.26 127.085 160.074 127.445 160.015C127.665 159.979 127.891 159.991 128.106 160.05C128.321 160.11 128.521 160.216 128.691 160.36C128.862 160.504 128.999 160.684 129.092 160.887C129.186 161.09 129.235 161.31 129.235 161.533C129.235 161.757 129.186 161.978 129.092 162.18C128.999 162.383 128.862 162.563 128.691 162.707C128.521 162.851 128.321 162.957 128.106 163.017C127.891 163.077 127.665 163.088 127.445 163.052ZM129.369 151.361C129.121 153.66 128.697 155.938 128.102 158.173C128.039 158.293 127.945 158.392 127.83 158.462C127.715 158.532 127.582 158.569 127.448 158.569C127.313 158.569 127.181 158.532 127.066 158.462C126.95 158.392 126.856 158.293 126.794 158.173C126.319 156.526 125.955 154.848 125.706 153.151C125.496 151.92 124.778 149.919 125.465 148.719C126.07 147.647 127.784 147.518 128.774 148.077C129.99 148.77 129.513 150.237 129.369 151.361Z" fill="#D7E8F0"/>
<path d="M101.324 133.098H152.116" stroke="#CCDDE2" stroke-width="4.5" stroke-miterlimit="10"/>
<path d="M101.324 138.1H152.116" stroke="#CCDDE2" stroke-width="4.5" stroke-miterlimit="10"/>
<path d="M101.324 170.29H152.116" stroke="#CCDDE2" stroke-width="4.5" stroke-miterlimit="10"/>
<path d="M113.123 175.02H140.317" stroke="#CCDDE2" stroke-width="4.5" stroke-miterlimit="10"/>
<path d="M415.11 182.002H337.252C330.77 182.002 325.515 187.257 325.515 193.74V326.714C325.515 333.197 330.77 338.452 337.252 338.452H415.11C421.593 338.452 426.848 333.197 426.848 326.714V193.74C426.848 187.257 421.593 182.002 415.11 182.002Z" fill="#3FBDF1"/>
<path d="M308.683 182.002H254.469C247.987 182.002 242.732 187.257 242.732 193.74V326.714C242.732 333.197 247.987 338.452 254.469 338.452H308.683C315.165 338.452 320.42 333.197 320.42 326.714V193.74C320.42 187.257 315.165 182.002 308.683 182.002Z" fill="#3FBDF1"/>
<path d="M247.221 418.008H426.289C429.383 418.006 432.35 416.777 434.538 414.59C436.726 412.402 437.957 409.436 437.96 406.342V184.064C437.96 182.532 437.659 181.014 437.073 179.597C436.487 178.181 435.627 176.894 434.543 175.81C433.459 174.726 432.172 173.867 430.756 173.281C429.34 172.694 427.822 172.393 426.289 172.394H304.595L272.789 172.583H272.697L256.614 173.209H256.563L252.331 173.373H251.956L251.644 175.892L251.028 180.576C251.035 180.585 251.038 180.595 251.038 180.607C251.038 180.618 251.035 180.629 251.028 180.638L246.021 188.056L244.995 189.559L242.168 207.647V207.734C242.107 207.709 242.045 207.673 241.968 207.632C241.906 207.596 241.848 207.555 241.794 207.508C240.843 206.792 240.128 205.808 239.742 204.682C238.803 202.302 238.577 199.147 238.567 196.643L237.952 210.386V210.438L237.095 228.798L236.885 233.728C237.285 233.015 237.859 231.989 238.526 230.763L236.397 244.368L235.956 254.171L234.858 278.944L234.817 279.867V280.221L234.53 286.254V286.392C234.53 286.392 233.709 304.096 233.709 304.122L233.632 305.763L232.683 312.93L229.913 332.983V406.342C229.913 408.432 230.477 410.484 231.544 412.281C232.611 414.078 234.142 415.555 235.977 416.556C239.45 418.439 243.292 418.187 247.109 418.059C248.135 418.028 249.161 417.982 250.187 417.926" fill="#3C5DC0"/>
<path d="M252.279 172.696L256.475 172.671H256.562L272.67 172.583H272.783L304.589 172.394H426.288C429.383 172.395 432.351 173.625 434.539 175.813C436.728 178.002 437.958 180.969 437.959 184.064V406.342C437.956 409.436 436.726 412.402 434.538 414.59C432.349 416.777 429.382 418.006 426.288 418.008H241.264C238.25 418.008 235.358 416.81 233.226 414.678C231.094 412.546 229.896 409.655 229.896 406.64V382.37" stroke="black" stroke-width="4.5" stroke-miterlimit="10"/>
<path d="M415.11 349.943H254.469C247.987 349.943 242.732 355.198 242.732 361.68V394.312C242.732 400.795 247.987 406.05 254.469 406.05H415.11C421.592 406.05 426.847 400.795 426.847 394.312V361.68C426.847 355.198 421.592 349.943 415.11 349.943Z" fill="white"/>
<path d="M362 362.44H258.23C256.034 362.44 254.254 364.22 254.254 366.415V390.383C254.254 392.578 256.034 394.358 258.23 394.358H362C364.195 394.358 365.975 392.578 365.975 390.383V366.415C365.975 364.22 364.195 362.44 362 362.44Z" fill="#3C5DC0"/>
<path d="M343.383 375.885C345.208 375.885 346.687 374.406 346.687 372.582C346.687 370.757 345.208 369.278 343.383 369.278C341.559 369.278 340.08 370.757 340.08 372.582C340.08 374.406 341.559 375.885 343.383 375.885Z" fill="white"/>
<path d="M334.158 387.52C334.158 385.071 335.131 382.723 336.863 380.991C338.594 379.259 340.943 378.286 343.392 378.286C345.841 378.286 348.19 379.259 349.921 380.991C351.653 382.723 352.626 385.071 352.626 387.52H334.158Z" fill="white"/>
<path d="M394.158 362.445C390.941 362.442 387.796 363.393 385.119 365.178C382.443 366.963 380.356 369.502 379.123 372.474C377.89 375.445 377.566 378.716 378.192 381.872C378.818 385.028 380.366 387.927 382.641 390.202C384.915 392.478 387.813 394.028 390.968 394.656C394.123 395.284 397.394 394.962 400.366 393.731C403.339 392.5 405.879 390.415 407.666 387.739C409.453 385.064 410.406 381.919 410.405 378.702C410.406 376.567 409.986 374.454 409.17 372.482C408.354 370.51 407.157 368.718 405.649 367.208C404.14 365.699 402.349 364.501 400.378 363.684C398.406 362.866 396.293 362.445 394.158 362.445ZM394.158 391.034C393.837 391.049 393.516 390.998 393.214 390.886C392.913 390.773 392.637 390.6 392.405 390.378C392.172 390.156 391.986 389.889 391.86 389.593C391.733 389.297 391.668 388.978 391.668 388.657C391.668 388.334 391.733 388.016 391.86 387.72C391.986 387.424 392.172 387.157 392.405 386.934C392.637 386.712 392.913 386.539 393.214 386.427C393.516 386.314 393.837 386.263 394.158 386.279C394.77 386.307 395.347 386.57 395.77 387.013C396.192 387.456 396.428 388.044 396.428 388.657C396.428 389.269 396.192 389.857 395.77 390.3C395.347 390.743 394.77 391.006 394.158 391.034ZM397.149 372.746C396.636 376.275 396.221 379.979 395.169 383.396C394.933 384.222 393.379 384.222 393.117 383.396C392.372 380.821 391.802 378.198 391.414 375.547C391.086 373.623 389.962 370.494 391.039 368.626C391.988 366.949 394.666 366.749 396.205 367.6C398.124 368.688 397.354 370.991 397.149 372.746Z" fill="#3C5DC0"/>
<path d="M411.426 295.098C410.638 301.895 407.824 308.299 403.35 313.476C398.877 318.654 392.949 322.367 386.338 324.133C379.727 325.899 372.738 325.636 366.278 323.379C359.819 321.122 354.187 316.974 350.114 311.475C346.042 305.976 343.717 299.38 343.442 292.542C343.166 285.706 344.953 278.943 348.569 273.135C352.186 267.326 357.466 262.739 363.723 259.969C369.98 257.199 376.926 256.375 383.657 257.603C383.953 257.66 384.234 257.777 384.483 257.947C384.733 258.117 384.944 258.336 385.105 258.59C385.266 258.845 385.373 259.131 385.42 259.428C385.466 259.726 385.451 260.03 385.376 260.322L384.704 262.943L378.681 286.459C378.585 286.834 378.589 287.228 378.694 287.601C378.798 287.974 378.998 288.313 379.275 288.584C379.551 288.854 379.894 289.047 380.269 289.144C380.644 289.24 381.037 289.236 381.41 289.132L404.788 282.596L407.984 281.704C408.269 281.624 408.567 281.602 408.86 281.639C409.153 281.677 409.436 281.772 409.692 281.921C409.947 282.07 410.17 282.269 410.347 282.506C410.525 282.742 410.652 283.012 410.723 283.299C411.644 287.162 411.882 291.155 411.426 295.098Z" fill="white"/>
<path d="M412.231 270.864C412.342 271.15 412.391 271.457 412.375 271.764C412.36 272.071 412.28 272.371 412.142 272.646C412.003 272.92 411.808 273.162 411.57 273.356C411.332 273.55 411.055 273.692 410.759 273.773L408.558 274.388L389.52 279.708C389.148 279.812 388.754 279.816 388.379 279.719C388.004 279.623 387.661 279.43 387.385 279.159C387.108 278.888 386.908 278.549 386.804 278.177C386.699 277.804 386.695 277.41 386.791 277.035L391.711 257.89L392.183 256.054C392.257 255.762 392.391 255.488 392.575 255.25C392.76 255.012 392.991 254.815 393.256 254.67C393.52 254.526 393.811 254.437 394.111 254.411C394.411 254.384 394.714 254.419 394.999 254.515C398.872 255.851 402.414 258.002 405.387 260.822C408.359 263.643 410.693 267.066 412.231 270.864Z" fill="white"/>
<path d="M377.061 212.597C382.24 212.597 386.438 208.399 386.438 203.22C386.438 198.041 382.24 193.842 377.061 193.842C371.881 193.842 367.683 198.041 367.683 203.22C367.683 208.399 371.881 212.597 377.061 212.597Z" fill="#D7E8F0"/>
<path d="M411.653 223.945H343.388V225.823H411.653V223.945Z" fill="#D7E8F0"/>
<path d="M411.653 230.891H343.388V232.769H411.653V230.891Z" fill="#D7E8F0"/>
<path d="M411.653 237.221H343.388V239.099H411.653V237.221Z" fill="#D7E8F0"/>
<path d="M308.466 263.169H254.991V265.047H308.466V263.169Z" fill="#D7E8F0"/>
<path d="M308.466 270.746H254.991V272.624H308.466V270.746Z" fill="#D7E8F0"/>
<path d="M308.466 278.318H254.991V280.195H308.466V278.318Z" fill="#D7E8F0"/>
<path d="M308.466 285.895H254.991V287.772H308.466V285.895Z" fill="#D7E8F0"/>
<path d="M308.466 293.472H254.991V295.349H308.466V293.472Z" fill="#D7E8F0"/>
<path d="M247.657 209.817C247.657 209.817 263.909 235.411 282.428 243.454C300.947 251.498 306.734 255.053 313.819 252.175C320.903 249.298 334.503 245.265 344.086 216.778C353.668 188.292 358.234 173.297 358.573 166.397C358.911 159.497 339.858 165.165 339.858 165.165C339.858 165.165 329.598 195.407 307.119 208.904L275.102 175.087L247.657 209.817Z" fill="white"/>
<path d="M228.665 249.149L241.747 252.699C241.747 252.699 226.557 273.644 240.064 295.575C253.571 317.506 281.386 361.752 281.386 361.752L334.625 446.397L284.834 439.456L247.657 398.734L228.676 379.81L204.888 305.553L228.665 249.149Z" fill="white"/>
<path d="M15.073 357.392C16.2492 358.028 17.6107 358.233 18.9222 357.971C20.2336 357.71 21.4127 356.999 22.255 355.96L41.6156 332.224L57.2365 312.617L44.4474 305.435C43.1228 304.687 41.5551 304.495 40.0895 304.902C38.6233 305.309 37.3788 306.281 36.6293 307.605L12.7952 349.466C12.4156 350.134 12.1732 350.87 12.0823 351.633C11.9915 352.396 12.054 353.17 12.2662 353.908C12.4784 354.646 12.836 355.335 13.3179 355.933C13.8 356.531 14.3966 357.027 15.073 357.392Z" fill="#2E2E2E"/>
<path d="M309.771 469.354L325.884 485.206C327.274 486.577 329.148 487.347 331.101 487.35H371.397C372.647 487.355 373.871 486.996 374.921 486.317C375.97 485.638 376.799 484.668 377.307 483.526C377.814 482.384 377.978 481.118 377.779 479.884C377.579 478.651 377.025 477.501 376.183 476.577C375.124 475.393 373.66 474.646 372.079 474.484L349.728 472.191L309.771 469.354Z" fill="#2E2E2E"/>
<path d="M162.623 271.09C162.623 271.09 193.787 279.759 214.564 282.345C235.34 284.93 233.883 276.312 233.883 276.312L236.423 265.426C243.092 254.561 246.965 231.445 246.965 231.445L249.643 213.362L253.552 220.241L266.187 232.969L266.341 233.092C265.956 227.013 266.249 218.471 267.665 206.836C270.927 179.904 281.731 183.028 281.731 183.028L280.146 181.289C272.682 168.869 248.853 155.742 241.24 152.602C233.627 149.463 236.884 153.91 237.854 157.219C238.824 160.528 236.053 169.839 224.957 165.099C213.861 160.359 213.302 150.047 213.302 150.047H208.146C176.52 153.849 160.437 170.716 160.437 170.716C194.034 178.642 186.323 207.139 186.323 207.139L183.276 209.925C171.349 220.267 170.518 230.24 171.549 234.395C172.58 238.55 179.936 244.142 193.218 247.384C206.5 250.626 208.916 250.631 211.917 244.891C214.918 239.15 218.417 238.442 223.203 237.581C227.989 236.719 233.853 240.12 232.514 242.798C231.175 245.476 230.205 243.136 233.54 250.37C236.874 257.603 235.325 261.281 226.358 267.945C217.391 274.609 177.52 270.869 177.52 270.869C158.452 265.595 162.623 271.09 162.623 271.09Z" fill="#2E2E2E"/>
<path d="M235.515 150.217V151.309V151.586C244.428 153.814 252.823 157.755 260.231 163.19C261.432 164.068 262.601 164.96 263.755 165.899C263.786 162.129 263.463 158.343 262.247 154.772C261.262 151.708 259.406 148.997 256.907 146.969C254.706 145.215 252.105 144.091 249.489 143.076C246.873 142.06 244.302 141.167 241.902 139.798C239.878 138.691 238.111 137.17 236.715 135.335C236.226 134.671 235.921 133.889 235.83 133.07C235.74 132.25 235.868 131.421 236.202 130.666C235.966 130.65 235.733 130.604 235.51 130.528L235.515 150.217Z" fill="#3FBDF1"/>
<path d="M235.515 150.217V151.309V151.586C244.428 153.814 252.823 157.755 260.231 163.19C261.432 164.068 262.601 164.96 263.755 165.899C263.786 162.129 263.463 158.343 262.247 154.772C261.262 151.708 259.406 148.997 256.907 146.969C254.706 145.215 252.105 144.091 249.489 143.076C246.873 142.06 244.302 141.167 241.902 139.798C239.878 138.691 238.111 137.17 236.715 135.335C236.226 134.671 235.921 133.889 235.83 133.07C235.74 132.25 235.868 131.421 236.202 130.666C235.966 130.65 235.733 130.604 235.51 130.528L235.515 150.217Z" fill="#3FBDF1"/>
<path d="M112.358 235.385C115.707 237.782 119.431 239.607 123.377 240.787C125.075 241.31 126.799 241.742 128.543 242.08C121.653 225.843 126.809 204.482 148.55 181.705C152.272 177.798 156.235 174.128 160.416 170.716C167.172 165.222 173.174 161.128 180.253 157.835C183.423 156.372 186.678 155.103 190 154.033C195.892 152.072 201.974 150.736 208.145 150.047C209.546 149.878 210.931 149.755 212.331 149.678C211.99 147.273 212.057 144.827 212.531 142.445C213.824 135.904 216.076 132.144 220.17 126.988C222.735 123.741 226.741 115.984 221.401 113.306C218.031 111.629 217.723 108.176 219.308 106.124C220.647 104.339 223.356 103.523 226.695 105.611C229.004 107.089 231.743 107.181 234.39 106.458C236.446 105.26 238.229 103.645 239.623 101.718C243.501 96.1618 243.64 87.7435 237.571 83.6652C234.262 81.4336 230.045 80.895 226.09 81.3259C224.319 81.5203 222.573 81.902 220.883 82.4647C220.875 82.4617 220.868 82.4596 220.86 82.4596C220.852 82.4596 220.844 82.4617 220.837 82.4647C213.655 86.3276 208.55 93.4686 206.088 101.518C204.641 106.273 203.01 110.982 201.102 115.599C199.532 119.385 198.439 123.987 194.946 126.572C193.485 127.652 191.828 128.437 190.067 128.881C183.465 133.067 174.308 130.651 167.09 129.758C161.319 128.969 155.443 129.56 149.945 131.482C143.789 134.596 138.495 139.567 134.201 146.031C127.107 156.727 134.617 172.147 122.751 180.581C119.16 183.12 115.056 184.659 111.132 186.629C105.53 189.477 101.005 193.524 99.3328 199.757C96.0291 212.331 101.908 227.798 112.358 235.385Z" fill="#3C5DC0"/>
<path d="M402.486 487.35H121.752" stroke="black" stroke-width="4.5" stroke-miterlimit="10"/>
<path d="M245.81 96.6543C246.53 98.1492 247.148 99.6918 247.656 101.271C248.395 103.836 247.595 105.427 248.718 107.874C249.103 108.72 249.657 110.151 250.257 111.598C250.427 111.259 250.581 110.982 250.673 110.767C255.075 100.964 249.288 96.2388 246.502 94.6229C246.325 95.3175 246.093 95.9967 245.81 96.6543Z" fill="#3FBDF1"/>
<path d="M245.81 96.6543C246.53 98.1492 247.148 99.6918 247.656 101.271C248.395 103.836 247.595 105.427 248.718 107.874C249.103 108.72 249.657 110.151 250.257 111.598C250.427 111.259 250.581 110.982 250.673 110.767C255.075 100.964 249.288 96.2388 246.502 94.6229C246.325 95.3175 246.093 95.9967 245.81 96.6543Z" fill="#3FBDF1"/>
<path d="M148.279 262.04C145.59 283.238 147.766 320.009 191.176 348.142C198.989 353.206 206.022 360.357 212.911 366.538C231.702 383.519 249.578 401.486 266.464 420.362C276.801 431.823 287.353 443.868 297.834 455.472C303.206 461.402 308.637 467.278 314.126 473.099C318.169 477.362 324.581 487.345 331.081 487.345H371.023C374.614 487.345 377.877 484.405 377.826 480.799C377.796 479.24 377.206 477.745 376.163 476.587C375.104 475.402 373.641 474.656 372.059 474.494L349.708 472.201L241.716 300.459C236.145 291.594 231.205 277.005 235.514 267.447C251.93 231.096 250.52 195.863 250.52 195.863" stroke="black" stroke-width="4.5" stroke-miterlimit="10"/>
<path d="M204.19 359.192C199.481 375.737 191.878 392.537 185.599 403.115C183.324 406.977 180.324 410.364 176.765 413.088C163.899 422.943 145.713 421.891 133.376 411.39L72.0156 359.162L41.6203 332.224L22.2597 355.96C21.344 357.074 20.0443 357.804 18.6169 358.006C17.1895 358.208 15.7382 357.868 14.5495 357.053C13.3607 356.237 12.5211 355.005 12.1962 353.601C11.8713 352.196 12.0848 350.721 12.7946 349.466L36.634 307.615C37.3835 306.291 38.628 305.319 40.0936 304.912C41.5598 304.506 43.127 304.697 44.4521 305.445L57.2412 312.627L130.518 353.667C131.737 354.349 133.101 354.732 134.496 354.785C135.892 354.837 137.281 354.557 138.548 353.968C139.814 353.379 140.923 352.498 141.783 351.397C142.642 350.295 143.228 349.006 143.492 347.634L152.172 302.121" stroke="black" stroke-width="4.5" stroke-miterlimit="10"/>
<path d="M235.514 127.48V150.052V151.145V151.422C237.838 154.808 239.007 159.63 236.791 163.221C233.821 168.038 227.265 167.238 223.109 164.545C221.886 163.754 220.719 162.88 219.616 161.928C215.918 158.715 213.524 154.259 212.885 149.401C212.544 146.996 212.611 144.55 213.085 142.168C214.388 135.632 216.635 131.877 220.734 126.706C223.299 123.474 227.301 115.707 221.955 113.029C215.691 109.905 220.031 100.763 227.249 105.334C232.851 108.889 240.9 104.457 244.225 99.6913C248.103 94.1355 248.241 85.7172 242.173 81.6388C238.864 79.4073 234.647 78.8686 230.692 79.2995C218.641 80.6231 210.064 90.0418 206.632 101.246C205.185 106.001 203.554 110.711 201.646 115.328C200.076 119.113 198.983 123.715 195.49 126.301C188.821 131.272 179.207 128.671 171.681 127.747C156.014 125.824 143.379 132.764 134.745 145.759C127.65 156.455 135.161 171.876 123.295 180.309C119.704 182.849 115.6 184.388 111.676 186.357C106.074 189.205 101.549 193.252 99.9022 199.485C96.578 212.043 102.467 227.51 112.907 235.098C117.693 238.576 123.295 240.653 129.112 241.792" stroke="black" stroke-width="4.5" stroke-miterlimit="10"/>
<path d="M266.441 168.823C266.472 168.536 266.483 168.259 266.498 167.987C266.76 163.026 266.729 157.886 265.113 153.11C264.121 150.049 262.265 147.341 259.767 145.312C257.561 143.563 254.961 142.429 252.355 141.414C249.748 140.398 247.163 139.515 244.767 138.141C242.739 137.039 240.971 135.515 239.581 133.672C239.094 133.011 238.79 132.232 238.7 131.415C238.61 130.598 238.737 129.772 239.068 129.019" stroke="black" stroke-width="4.5" stroke-miterlimit="10"/>
<path d="M230.656 122.392C232.472 124.987 234.935 127.788 238.038 128.799C242.055 130.107 244.759 126.696 246.2 123.377C247.062 121.401 247.657 119.298 248.355 117.256C248.58 116.584 248.719 116.261 249.488 116.23C250.258 116.2 251.068 116.354 251.858 116.354C251.914 116.352 251.969 116.336 252.017 116.306C252.065 116.277 252.104 116.236 252.131 116.186C252.158 116.136 252.17 116.081 252.169 116.024C252.167 115.968 252.15 115.913 252.12 115.866C251.058 114.25 249.473 109.844 248.673 108.079C247.56 105.632 248.365 104.047 247.616 101.477C247.106 99.8985 246.492 98.3559 245.779 96.8595" stroke="black" stroke-width="4.5" stroke-miterlimit="10"/>
<path d="M246.964 92.1143C246.964 92.1143 257.916 96.3157 252.258 108.941C251.909 109.705 251.053 111.3 250.647 112.019" stroke="black" stroke-width="4.5" stroke-miterlimit="10"/>
<path d="M365.102 56.1171C365.102 56.1171 365.164 56.148 365.288 56.1943L365.102 56.1171Z" fill="#3FBDF1"/>
<path d="M246.36 123.012C245.482 123.133 244.592 122.929 243.855 122.44C243.117 121.951 242.583 121.21 242.353 120.355" stroke="black" stroke-width="4.5" stroke-miterlimit="10"/>
<path d="M248.21 106.104C245.943 104.257 243.455 106.617 241.936 108.33" stroke="black" stroke-width="4.5" stroke-miterlimit="10"/>
<path d="M212.901 149.406C205.296 149.887 197.785 151.348 190.554 153.751C178.755 157.619 170.629 162.611 160.99 170.434C156.811 173.853 152.848 177.528 149.125 181.438C127.363 204.215 122.218 225.587 129.118 241.818C134.725 255.043 147.652 263.246 160.898 267.427C169.562 270.156 178.591 271.331 187.651 271.592C198.449 271.9 209.34 271.49 219.97 269.438C224.448 268.576 229.609 267.868 232.282 263.708C234.955 259.547 235.18 253.935 233.195 249.477C231.333 245.327 226.305 240.864 221.76 244.121C221.256 244.485 220.841 244.959 220.547 245.506C220.254 246.054 220.087 246.661 220.062 247.281" stroke="black" stroke-width="4.5" stroke-miterlimit="10"/>
<path d="M204.687 176.852C205.251 193.863 190.836 203.348 190.836 203.348C186.054 207.221 181.407 211.382 177.498 216.147C174.999 219.19 172.68 222.596 171.531 226.407C170.673 229.007 170.687 231.815 171.572 234.405C172.552 236.8 174.17 238.88 176.251 240.417C180.139 243.46 184.869 245.034 189.558 246.399C194.725 247.877 199.987 248.998 205.307 249.754C208.385 250.195 209.683 249.241 211.089 246.579C212.361 244.167 213.402 241.377 215.757 239.802C219.02 237.611 223.401 237.103 227.176 238.006C232.999 239.391 234.487 244.008 229.741 244.942" stroke="black" stroke-width="4.5" stroke-miterlimit="10"/>
<path d="M201.134 292.261L112.667 270.885L91.6132 358.012L177.628 379.394L180.388 378.127L201.134 292.261Z" fill="white"/>
<path d="M160.312 280.011C164.508 250.636 173.604 243.372 179.524 241.921L179.134 241.705C161.261 234.749 148.867 269.166 146.235 277.215L160.312 280.011Z" fill="#D7E8F0"/>
<path d="M160.066 282.34C164.263 252.965 173.604 243.352 179.524 241.921L179.135 241.705C161.262 234.749 148.355 270.823 145.713 278.867L160.066 282.34Z" fill="#D7E8F0"/>
<path d="M179.135 241.705C158.922 233.846 145.713 278.867 145.713 278.867L160.077 282.34C168.423 237.196 186.332 245.404 186.332 245.404C185.701 245.214 179.135 241.705 179.135 241.705Z" stroke="black" stroke-width="4.5" stroke-miterlimit="10"/>
<path d="M111.68 275.037L91.6152 358.04L161.409 374.912L181.474 291.909L111.68 275.037Z" fill="#3FBDF1"/>
<path d="M112.746 270.642L91.6172 358.043L165.106 375.808L186.234 288.407L112.746 270.642Z" fill="white"/>
<path d="M113.09 277.29L94.8938 352.565C94.3777 354.699 95.69 356.847 97.8241 357.364L159.889 372.367C162.023 372.883 164.172 371.571 164.688 369.437L182.885 294.163C183.401 292.028 182.089 289.88 179.955 289.364L117.889 274.361C115.755 273.845 113.607 275.156 113.09 277.29Z" fill="#3C5DC0"/>
<path d="M112.679 270.915L91.6172 358.042L165.106 375.807L186.168 288.68L112.679 270.915Z" stroke="black" stroke-width="4.5" stroke-miterlimit="10"/>
<path d="M186.477 288.749L165.415 375.876L180.085 379.422L201.147 292.295L186.477 288.749Z" fill="white"/>
<path d="M186.477 288.749L165.415 375.876L180.085 379.422L201.147 292.295L186.477 288.749Z" stroke="black" stroke-width="4.5" stroke-miterlimit="10"/>
<path d="M180.078 379.394L175.354 367.241L165.407 375.849" stroke="black" stroke-width="4.5" stroke-miterlimit="10"/>
<path d="M193.802 290.491L175.354 367.241" stroke="black" stroke-width="4.5" stroke-miterlimit="10"/>
<path d="M355.633 149.155C355.356 149.201 355.12 149.247 354.818 149.309C352.042 149.793 349.412 150.898 347.123 152.541C344.614 154.48 342.336 157.85 341.228 160.749C339.553 165.15 337.711 169.48 335.703 173.738C332.672 180.302 329.067 186.584 324.93 192.513C320.636 198.546 315.481 204.661 308.986 208.416C308.171 208.909 307.312 209.327 306.421 209.663C305.328 210.125 289.954 192.437 288.261 190.467C281.474 182.572 274.456 174.753 266.499 167.997C264.483 166.274 262.395 164.611 260.251 163.057C252.838 157.617 244.439 153.671 235.519 151.438" stroke="black" stroke-width="4.5" stroke-miterlimit="10"/>
<path d="M383.293 148.508C383.323 148.516 383.355 148.516 383.385 148.508C390.496 149.339 387.71 157.004 382.708 156.757C377.183 156.48 371.674 156.757 366.164 156.85C364.645 156.8 363.133 157.078 361.732 157.665C358.962 158.989 358.7 161.944 358.284 164.622C357.73 168.131 357.099 171.64 356.355 175.118C354.909 182.012 353.124 188.815 351.077 195.556C349.753 199.926 348.291 204.277 346.752 208.581C342.258 221.262 336.595 234.713 327.068 244.491C321.805 249.908 314.91 253.909 307.138 253.325C296.196 252.509 285.669 247.015 276.389 240.766C276.35 240.74 276.314 240.709 276.281 240.674C272.817 238.342 269.497 235.804 266.339 233.071C266.339 233.071 253.55 221.683 249.641 213.341" stroke="black" stroke-width="4.5" stroke-miterlimit="10"/>
<path d="M403.511 141.614V142.332C403.511 147.287 399.52 148.139 396.072 148.221L329.347 149.76C326.423 149.837 323.965 147.277 323.904 144.081V143.948C323.904 140.813 326.202 138.207 329.09 138.135C329.09 138.135 366.416 137.084 395.323 136.289C395.872 138.038 397.216 139.392 398.884 140.449C400.277 141.287 401.887 141.692 403.511 141.614Z" stroke="black" stroke-width="4.5" stroke-miterlimit="10"/>
<path d="M438.959 71.0094C438.959 71.8256 438.765 72.631 438.395 73.359L408.574 134.534C408.224 135.241 407.725 135.864 407.111 136.36C406.498 136.856 405.784 137.213 405.019 137.407C403.786 137.719 402.483 137.584 401.341 137.027C400.427 136.578 399.658 135.882 399.12 135.018C398.583 134.154 398.298 133.156 398.299 132.139C398.304 131.324 398.489 130.522 398.843 129.789L428.679 68.6086C429.221 67.5159 430.116 66.6387 431.22 66.1185C432.323 65.5988 433.57 65.467 434.757 65.744C435.945 66.0215 437.004 66.692 437.763 67.6467C438.522 68.6014 438.936 69.7844 438.939 71.0043L438.959 71.0094Z" stroke="black" stroke-width="4.5" stroke-miterlimit="10"/>
<path d="M357.813 58.4256C366.862 58.4256 374.198 51.0895 374.198 42.0403C374.198 32.9909 366.862 25.655 357.813 25.655C348.764 25.655 341.428 32.9909 341.428 42.0403C341.428 51.0895 348.764 58.4256 357.813 58.4256Z" fill="#3C5DC0"/>
<path d="M352.607 47.6782C352.064 47.4748 351.555 47.1894 351.098 46.8317C350.294 46.2254 349.741 45.3447 349.545 44.3571C349.348 43.3696 349.521 42.3442 350.031 41.476C350.364 40.9122 350.823 40.4334 351.372 40.0774C351.922 39.7212 352.546 39.4976 353.196 39.424C352.836 38.5769 352.761 37.6354 352.983 36.742C353.205 35.8486 353.712 35.0518 354.428 34.4721C355.143 33.8925 356.027 33.5616 356.948 33.5294C357.867 33.4973 358.773 33.7657 359.527 34.294C361.112 35.397 362.21 37.3412 362.882 39.1162C363.229 40.0483 363.483 41.0123 363.641 41.9941C363.718 42.5071 364.241 45.3286 363.831 45.6159C361.122 47.4935 356.08 49.0017 352.607 47.6782Z" fill="white"/>
<g opacity="0.72">
<path opacity="0.72" d="M343.988 92.6067C348.969 92.6067 353.007 88.5694 353.007 83.5882C353.007 78.6075 348.969 74.5697 343.988 74.5697C339.007 74.5697 334.97 78.6075 334.97 83.5882C334.97 88.5694 339.007 92.6067 343.988 92.6067Z" fill="#3C5DC0"/>
<path opacity="0.72" d="M345.772 87.4152C345.555 87.6512 345.302 87.8518 345.023 88.0103C344.545 88.2894 343.982 88.3848 343.439 88.2781C342.896 88.1714 342.41 87.8697 342.074 87.4306C341.853 87.1428 341.702 86.8078 341.633 86.4513C341.565 86.0953 341.581 85.7279 341.679 85.3786C341.174 85.3817 340.681 85.2211 340.276 84.921C339.87 84.6204 339.572 84.1966 339.428 83.7129C339.283 83.2286 339.299 82.711 339.474 82.2375C339.649 81.7635 339.972 81.3592 340.396 81.0848C341.358 80.5523 342.454 80.3102 343.551 80.3871C344.099 80.4025 344.644 80.4748 345.177 80.6026C345.449 80.6641 346.998 80.9924 347.06 81.2592C347.455 83.0393 347.173 85.9275 345.772 87.4152Z" fill="white"/>
</g>
<path d="M394.758 63.9059L385.908 68.624C382.698 70.3349 381.483 74.325 383.194 77.5348L387.912 86.3851C389.623 89.5954 393.612 90.8107 396.822 89.0994L405.673 84.3818C408.883 82.6705 410.098 78.6809 408.387 75.4705L403.67 66.6202C401.958 63.4104 397.969 62.1951 394.758 63.9059Z" fill="#3C5DC0"/>
<path d="M398.303 86.5841L404.71 83.1676C406.046 82.4504 407.045 81.2341 407.487 79.7838C407.929 78.3331 407.779 76.7669 407.07 75.4264L402.966 67.7314C402.25 66.3945 401.034 65.3957 399.583 64.9535C398.132 64.5113 396.566 64.6616 395.225 65.3716L394.794 65.6025C393.194 67.8237 391.065 71.6251 394.281 72.8204C398.898 74.5492 397.549 77.1398 395.82 80.4589C394.353 83.2445 393.978 86.5021 398.303 86.5841Z" fill="white"/>
<path d="M388.326 77.2681C389.664 77.2681 390.748 76.1836 390.748 74.8467C390.748 73.5093 389.664 72.4254 388.326 72.4254C386.989 72.4254 385.905 73.5093 385.905 74.8467C385.905 76.1836 386.989 77.2681 388.326 77.2681Z" fill="white"/>
<path d="M358.501 117.682C359.398 118.118 360.354 118.422 361.338 118.585C363.145 118.862 364.993 118.666 366.702 118.015C368.41 117.364 369.92 116.281 371.085 114.871C371.983 113.753 372.655 112.352 373.598 111.224C374.244 110.4 375.108 109.774 376.092 109.418C376.43 109.346 376.745 109.193 377.01 108.971C377.656 108.305 376.559 107.74 376.338 107.202C376.007 106.333 376.007 105.372 376.338 104.503C377.18 102.219 377.204 99.7128 376.405 97.4125C375.606 95.1122 374.035 93.1603 371.957 91.8896C369.88 90.6184 367.427 90.1074 365.015 90.4429C362.603 90.7789 360.383 91.9409 358.732 93.7302C357.1 95.4898 356.121 97.7368 355.105 99.8862C354.202 101.8 353.243 103.703 352.745 105.76C351.591 110.634 354.197 115.584 358.501 117.682Z" fill="#3C5DC0"/>
<path d="M367.664 100.368C368.925 100.368 369.946 99.3465 369.946 98.0856C369.946 96.8246 368.925 95.8027 367.664 95.8027C366.403 95.8027 365.381 96.8246 365.381 98.0856C365.381 99.3465 366.403 100.368 367.664 100.368Z" fill="white"/>
<path d="M364.672 106.668C365.932 106.668 366.955 105.646 366.955 104.385C366.955 103.125 365.932 102.102 364.672 102.102C363.411 102.102 362.389 103.125 362.389 104.385C362.389 105.646 363.411 106.668 364.672 106.668Z" fill="white"/>
<path d="M361.866 112.578C363.127 112.578 364.149 111.555 364.149 110.295C364.149 109.034 363.127 108.012 361.866 108.012C360.605 108.012 359.583 109.034 359.583 110.295C359.583 111.555 360.605 112.578 361.866 112.578Z" fill="white"/>
<g opacity="0.54">
<path opacity="0.54" d="M307.068 126.983C307.761 126.891 308.447 126.749 309.12 126.557L316.845 124.382C319.21 123.715 321.698 122.976 323.376 121.176C326.485 117.836 325.479 112.532 324.274 108.13C323.292 104.529 322.309 100.928 321.324 97.3264C320.647 94.8434 319.949 92.3195 318.6 90.1444C317.251 87.9692 315.117 86.1019 312.572 85.7018C310.7 85.4094 308.801 85.9121 306.97 86.4097L299.557 88.4617C297.126 89.1235 294.561 89.8673 292.857 91.7295C289.831 95.0384 290.805 100.23 291.965 104.555L294.925 115.61C296.741 122.253 300.142 127.855 307.068 126.983Z" fill="#3C5DC0"/>
<path opacity="0.54" d="M306.556 111.906C307.013 112.353 307.58 112.671 308.2 112.829C308.819 112.987 309.47 112.978 310.086 112.806C310.701 112.632 311.26 112.3 311.707 111.842C312.153 111.385 312.472 110.817 312.63 110.198L313.491 106.822L314.348 103.441C314.505 102.822 314.496 102.171 314.323 101.556C314.15 100.94 313.817 100.382 313.359 99.936C312.901 99.4897 312.333 99.1721 311.714 99.0146C311.094 98.8577 310.444 98.8659 309.829 99.0398L306.479 99.9837L303.124 100.928C302.509 101.103 301.951 101.437 301.507 101.895C301.062 102.354 300.746 102.922 300.59 103.541C300.434 104.161 300.444 104.811 300.619 105.425C300.793 106.04 301.126 106.597 301.585 107.043L304.083 109.474L306.556 111.906Z" fill="white"/>
</g>
</svg>
